<?xml version="1.0" encoding="UTF-8"?>
<svg width="321px" height="106px" viewBox="0 0 321 106" version="1.1" xmlns="http://www.w3.org/2000/svg" xmlns:xlink="http://www.w3.org/1999/xlink">
    <title>level</title>
    <g id="Page-1" stroke="none" stroke-width="1" fill="none" fill-rule="evenodd">
        <g id="level" transform="translate(-6, -48)" fill="#000000" fill-rule="nonzero">
            <path d="M46.08,151.864 C44.736,152.152 43.2,152.416 41.472,152.656 C39.744,152.896 37.632,153.016 35.136,153.016 C26.112,153.016 19.08,150.568 14.04,145.672 C9,140.776 6.48,133.864 6.48,124.936 L6.48,50.92 C6.48,49 7.44,48.04 9.36,48.04 L30.24,48.04 C32.16,48.04 33.12,49 33.12,50.92 L33.12,120.328 C33.12,125.896 35.616,128.68 40.608,128.68 C41.28,128.68 41.928,128.68 42.552,128.68 C43.176,128.68 43.776,128.632 44.352,128.536 C46.368,128.344 47.376,129.256 47.376,131.272 L47.376,148.84 C47.376,150.568 46.944,151.576 46.08,151.864 Z" id="Path"></path>
            <path d="M121.104,118.456 C121.104,120.376 120.144,121.336 118.224,121.336 L80.208,121.336 L80.208,122.056 C80.208,128.2 83.472,131.272 90,131.272 C92.88,131.272 95.712,130.936 98.496,130.264 C101.28,129.592 103.92,128.584 106.416,127.24 C107.952,126.28 109.248,126.52 110.304,127.96 L118.944,139.768 C120,141.304 119.856,142.648 118.512,143.8 C115.056,146.488 110.928,148.696 106.128,150.424 C101.328,152.152 95.616,153.016 88.992,153.016 C83.808,153.016 79.032,152.344 74.664,151 C70.296,149.656 66.552,147.64 63.432,144.952 C60.312,142.264 57.864,138.952 56.088,135.016 C54.312,131.08 53.424,126.52 53.424,121.336 L53.424,105.208 C53.424,99.736 54.288,95.032 56.016,91.096 C57.744,87.16 60.144,83.92 63.216,81.376 C66.288,78.832 69.936,76.936 74.16,75.688 C78.384,74.44 83.04,73.816 88.128,73.816 C93.024,73.816 97.488,74.416 101.52,75.616 C105.552,76.816 109.032,78.688 111.96,81.232 C114.888,83.776 117.144,87.016 118.728,90.952 C120.312,94.888 121.104,99.64 121.104,105.208 L121.104,118.456 Z M95.616,103.624 C95.616,97.864 93.024,94.984 87.84,94.984 C82.752,94.984 80.208,97.864 80.208,103.624 L80.208,105.928 L95.616,105.928 L95.616,103.624 Z" id="Shape"></path>
            <path d="M151.2,151 C149.664,151 148.608,150.232 148.032,148.696 L124.704,79.144 C124.32,78.088 124.344,77.272 124.776,76.696 C125.208,76.12 125.952,75.832 127.008,75.832 L149.328,75.832 C150.96,75.832 152.016,76.648 152.496,78.28 L158.832,105.496 C159.024,106.456 159.312,107.656 159.696,109.096 C160.08,110.536 160.464,112.096 160.848,113.776 C161.232,115.456 161.64,117.208 162.072,119.032 C162.504,120.856 162.864,122.536 163.152,124.072 L163.728,124.072 C164.112,122.536 164.496,120.88 164.88,119.104 C165.264,117.328 165.672,115.6 166.104,113.92 C166.536,112.24 166.92,110.656 167.256,109.168 C167.592,107.68 167.904,106.456 168.192,105.496 L174.816,78.28 C175.296,76.648 176.352,75.832 177.984,75.832 L200.304,75.832 C201.36,75.832 202.104,76.12 202.536,76.696 C202.968,77.272 202.992,78.088 202.608,79.144 L178.848,148.696 C178.272,150.232 177.168,151 175.536,151 L151.2,151 Z" id="Path"></path>
            <path d="M274.176,118.456 C274.176,120.376 273.216,121.336 271.296,121.336 L233.28,121.336 L233.28,122.056 C233.28,128.2 236.544,131.272 243.072,131.272 C245.952,131.272 248.784,130.936 251.568,130.264 C254.352,129.592 256.992,128.584 259.488,127.24 C261.024,126.28 262.32,126.52 263.376,127.96 L272.016,139.768 C273.072,141.304 272.928,142.648 271.584,143.8 C268.128,146.488 264,148.696 259.2,150.424 C254.4,152.152 248.688,153.016 242.064,153.016 C236.88,153.016 232.104,152.344 227.736,151 C223.368,149.656 219.624,147.64 216.504,144.952 C213.384,142.264 210.936,138.952 209.16,135.016 C207.384,131.08 206.496,126.52 206.496,121.336 L206.496,105.208 C206.496,99.736 207.36,95.032 209.088,91.096 C210.816,87.16 213.216,83.92 216.288,81.376 C219.36,78.832 223.008,76.936 227.232,75.688 C231.456,74.44 236.112,73.816 241.2,73.816 C246.096,73.816 250.56,74.416 254.592,75.616 C258.624,76.816 262.104,78.688 265.032,81.232 C267.96,83.776 270.216,87.016 271.8,90.952 C273.384,94.888 274.176,99.64 274.176,105.208 L274.176,118.456 Z M248.688,103.624 C248.688,97.864 246.096,94.984 240.912,94.984 C235.824,94.984 233.28,97.864 233.28,103.624 L233.28,105.928 L248.688,105.928 L248.688,103.624 Z" id="Shape"></path>
            <path d="M324.72,151.864 C323.376,152.152 321.84,152.416 320.112,152.656 C318.384,152.896 316.272,153.016 313.776,153.016 C304.752,153.016 297.72,150.568 292.68,145.672 C287.64,140.776 285.12,133.864 285.12,124.936 L285.12,50.92 C285.12,49 286.08,48.04 288,48.04 L308.88,48.04 C310.8,48.04 311.76,49 311.76,50.92 L311.76,120.328 C311.76,125.896 314.256,128.68 319.248,128.68 C319.92,128.68 320.568,128.68 321.192,128.68 C321.816,128.68 322.416,128.632 322.992,128.536 C325.008,128.344 326.016,129.256 326.016,131.272 L326.016,148.84 C326.016,150.568 325.584,151.576 324.72,151.864 Z" id="Path"></path>
        </g>
    </g>
</svg>